<svg width="108" height="103" viewBox="0 0 108 103" fill="none" xmlns="http://www.w3.org/2000/svg">
<ellipse cx="53.7732" cy="51.2125" rx="53.7732" ry="51.2125" fill="#FFF485"/>
<path d="M27.748 54.4556C28.6987 55.6575 29.5077 56.9648 30.159 58.3516C30.4119 58.8627 30.5676 59.4162 30.6183 59.9841C30.6785 60.5447 30.5903 61.1113 30.3625 61.627C30.2661 61.8662 30.1141 62.079 29.9189 62.2477C29.7238 62.4164 29.4913 62.5362 29.2405 62.5971C28.8719 62.6866 28.4858 62.674 28.1238 62.5606C27.8174 62.4639 27.5297 62.3158 27.2731 62.1225C26.9918 61.8674 26.7616 61.5613 26.5947 61.2202C26.3703 60.803 26.1981 60.4587 26.0728 60.1771C25.9476 59.8955 25.8015 59.5095 25.5979 58.988C25.5301 58.7637 25.4727 58.5916 25.431 58.4664C25.0499 57.5614 24.5592 56.7066 23.9697 55.9212C23.6792 55.621 23.3215 55.3939 22.926 55.2588C22.5523 55.1338 22.2226 54.9038 21.9762 54.5964C22.0858 55.7073 22.2372 56.8026 22.4146 57.8875C22.4843 58.3412 22.5872 58.7892 22.7225 59.2279C22.8737 59.7414 22.9922 60.264 23.0774 60.7925C23.1295 61.2215 23.0831 61.6568 22.9417 62.0651C22.7915 62.5174 22.469 62.8922 22.0441 63.1083C21.7573 63.2545 21.4459 63.3465 21.1256 63.3795C20.8589 63.4043 20.5905 63.3575 20.348 63.2439C20.1236 63.1337 19.9177 62.9894 19.7374 62.8162C19.5272 62.6285 19.3507 62.4062 19.2156 62.159C19.0695 61.8878 18.939 61.6218 18.8242 61.361C18.7053 61.0753 18.6093 60.7806 18.5372 60.4796C18.4589 60.151 18.391 59.8746 18.3336 59.6451C18.2693 59.389 18.2188 59.1296 18.1823 58.868C17.3417 53.8027 17.0913 48.6571 17.436 43.5342C17.4392 43.3964 17.4497 43.2588 17.4674 43.1221C17.4674 42.6006 17.5143 42.2094 17.5352 41.9382C17.5726 41.5658 17.6354 41.1964 17.7231 40.8325C17.7921 40.4624 17.9302 40.1085 18.1301 39.7894C18.3258 39.5286 18.5819 39.3192 18.8764 39.1792C19.2512 38.9988 19.6672 38.9214 20.0819 38.9549C20.394 39.007 20.6965 39.1055 20.9795 39.247C21.2112 39.3764 21.3944 39.5778 21.5013 39.8207C21.6228 40.0806 21.7139 40.3536 21.7727 40.6343C21.871 41.0361 21.9287 41.4467 21.9449 41.86C21.9449 42.3815 21.9084 42.8614 21.8771 43.336C21.8458 43.8106 21.7988 44.4573 21.7571 45.271C21.7153 46.0846 21.6892 46.8357 21.6892 47.5763C21.8458 46.7418 22.0389 45.9386 22.2633 45.1667C22.4877 44.3948 22.7851 43.6489 23.0617 42.9135C23.3275 42.2569 23.6634 41.6309 24.0637 41.0463C24.4102 40.5521 24.8288 40.1126 25.3057 39.7424C25.7208 39.3957 26.2371 39.1926 26.7774 39.1635C27.366 39.1539 27.9487 39.2826 28.4786 39.539C29.0057 39.8423 29.4675 40.2468 29.8375 40.7293C30.2074 41.2118 30.4781 41.7627 30.6339 42.3502C31.1001 43.7594 31.2897 45.2452 31.1923 46.7261C31.1042 48.2801 30.7512 49.8076 30.1486 51.2428C29.6711 52.5205 28.8382 53.6352 27.748 54.4556ZM21.1987 42.2042C21.31 41.1193 21.1169 40.3631 20.6194 39.9354C20.4088 39.7876 20.1635 39.697 19.9074 39.6723C19.6513 39.6476 19.3931 39.6897 19.1582 39.7946C19.0486 39.8415 19.0068 39.9145 19.0434 40.0189C19.0493 40.0414 19.0598 40.0626 19.0742 40.081C19.0887 40.0994 19.1067 40.1147 19.1272 40.1259C19.1477 40.1371 19.1703 40.1441 19.1935 40.1463C19.2168 40.1485 19.2403 40.146 19.2626 40.1388C19.4366 40.042 19.6347 39.9969 19.8335 40.0089C20.0323 40.0209 20.2235 40.0895 20.3846 40.2066C20.8125 40.5457 20.9795 41.1976 20.9064 42.1729C20.9064 42.2876 20.9064 42.3398 21.0421 42.3398C21.1778 42.3398 21.1987 42.2981 21.1987 42.2042ZM23.8445 43.2943C23.0989 44.7832 22.5901 46.3792 22.3363 48.0248C22.0315 49.5616 21.8569 51.1214 21.8145 52.6875C21.8849 52.5923 21.977 52.5152 22.0832 52.4626C22.1894 52.41 22.3065 52.3834 22.425 52.385C22.7198 52.3909 23.012 52.4419 23.2913 52.5363C23.5266 52.6206 23.7725 52.6715 24.0219 52.6875C24.4499 52.6875 24.8987 52.3276 25.3631 51.6027C25.8713 50.7805 26.2596 49.8901 26.5164 48.9584C26.8214 47.9268 27.0379 46.8712 27.1635 45.803C27.2964 44.863 27.2432 43.906 27.007 42.9865C26.7808 42.1729 26.3738 41.6983 25.7858 41.5627C25.1805 41.4271 24.5229 42.0008 23.8445 43.2943ZM28.1394 40.8847C28.1254 40.9028 28.1155 40.9238 28.1105 40.9462C28.1055 40.9686 28.1055 40.9918 28.1105 41.0142C28.1155 41.0366 28.1253 41.0577 28.1393 41.0758C28.1534 41.094 28.1712 41.1089 28.1916 41.1194C28.9967 41.744 29.5519 42.6356 29.7572 43.6333C30.0764 44.8732 30.1403 46.1649 29.9451 47.4302C29.7944 48.6724 29.3702 49.8658 28.703 50.9247C28.6864 50.9414 28.674 50.9618 28.6667 50.9843C28.6594 51.0067 28.6574 51.0305 28.661 51.0538C28.6645 51.0771 28.6735 51.0993 28.6871 51.1185C28.7008 51.1377 28.7187 51.1535 28.7396 51.1646H28.8387C28.8654 51.1674 28.8924 51.1625 28.9165 51.1505C28.9405 51.1385 28.9606 51.1198 28.9744 51.0968C29.683 49.9951 30.1309 48.7465 30.2843 47.4459C30.4785 46.1213 30.4022 44.7711 30.0599 43.4768C29.8331 42.4293 29.2296 41.5014 28.3638 40.869C28.351 40.8503 28.3334 40.8352 28.313 40.8254C28.2925 40.8155 28.2698 40.8111 28.2471 40.8127C28.2245 40.8143 28.2026 40.8217 28.1837 40.8344C28.1648 40.847 28.1495 40.8643 28.1394 40.8847Z" fill="#EC3205"/>
<path d="M41.4624 56.1816C41.7129 56.1816 41.8225 56.4424 41.8016 56.8962C41.7326 57.8238 41.5323 58.7369 41.2067 59.6083C40.9609 60.3027 40.5815 60.9424 40.0899 61.4911C39.675 61.9301 39.1787 62.2844 38.6287 62.5342C38.1122 62.768 37.5447 62.8667 36.9796 62.8211C36.3961 62.7645 35.8309 62.5869 35.3201 62.2995C33.9339 61.4804 32.9129 60.1634 32.4655 58.6173C31.8536 56.8571 31.5774 54.9977 31.6514 53.1357C31.7025 51.338 32.0119 49.5569 32.5699 47.8471C32.9167 46.5575 33.5681 45.3698 34.4694 44.384C35.059 43.6927 35.8928 43.2555 36.7969 43.1635C37.5749 43.1484 38.3323 43.4131 38.9314 43.9094C39.6279 44.4704 40.1419 45.2256 40.4082 46.0791C40.8807 47.6074 40.9685 49.2287 40.6639 50.7992C40.3954 52.2483 39.8227 53.6241 38.9835 54.836C38.3832 55.8137 37.4604 56.5515 36.3742 56.9222C36.4635 57.6979 36.6934 58.4508 37.0527 59.1441C37.2664 59.6035 37.6498 59.9623 38.1225 60.1455C38.5088 60.259 38.922 60.2407 39.2967 60.0933C39.7185 59.9111 40.0739 59.6033 40.3143 59.2119C40.6202 58.7362 40.8278 58.2042 40.9249 57.6472C40.9249 57.6055 40.9249 57.4803 40.9249 57.2769C40.9332 57.1023 40.9506 56.9282 40.9771 56.7553C41.0019 56.6115 41.0532 56.4736 41.1284 56.3485C41.1635 56.2929 41.2132 56.2479 41.272 56.2184C41.3309 56.189 41.3968 56.1763 41.4624 56.1816ZM34.6782 46.0738C34.7967 45.6662 35.0184 45.296 35.3219 44.999C35.6254 44.7021 36.0005 44.4885 36.4108 44.3788C36.7421 44.2498 37.1015 44.2099 37.4531 44.263C37.8047 44.3161 38.1362 44.4603 38.4147 44.6813C38.4289 44.6987 38.4468 44.7128 38.4671 44.7224C38.4874 44.7321 38.5096 44.7371 38.5321 44.7371C38.5546 44.7371 38.5768 44.7321 38.5971 44.7224C38.6175 44.7128 38.6354 44.6987 38.6495 44.6813C38.7156 44.6013 38.7052 44.5283 38.6182 44.4622C38.3017 44.1991 37.9219 44.0231 37.5164 43.9518C37.1109 43.8804 36.6938 43.9161 36.3064 44.0554C35.8447 44.1821 35.424 44.4267 35.0855 44.765C34.747 45.1033 34.5023 45.5238 34.3755 45.9852C34.3494 46.0999 34.3755 46.1677 34.4747 46.1886H34.5425C34.5746 46.1888 34.6056 46.1772 34.6296 46.1561C34.6537 46.1349 34.6691 46.1056 34.673 46.0738H34.6782ZM36.035 41.6302C35.921 41.6248 35.811 41.5864 35.7184 41.5198C35.6257 41.4531 35.5545 41.361 35.5132 41.2546C35.4233 41.1263 35.3759 40.9731 35.3775 40.8165V40.6444C35.3866 40.5169 35.4339 40.3952 35.5132 40.295L38.1225 36.7692C38.1917 36.6483 38.291 36.5473 38.4108 36.476C38.5306 36.4047 38.6667 36.3656 38.8061 36.3624C38.9674 36.3597 39.1262 36.4029 39.2638 36.4869C39.4015 36.5709 39.5124 36.6924 39.5837 36.837C39.7156 37.0502 39.786 37.2957 39.7872 37.5463C39.7872 37.5933 39.7872 37.6976 39.7872 37.8541C39.7481 38.0687 39.6485 38.2677 39.5002 38.4278L36.4421 41.4476C36.3908 41.5049 36.3281 41.5507 36.258 41.5821C36.1879 41.6136 36.1119 41.63 36.035 41.6302ZM36.6821 48.958C36.1479 50.9009 35.9415 52.9192 36.0716 54.9299C36.1603 54.9299 36.3168 54.8725 36.5464 54.8256C36.7474 54.7864 36.9461 54.7359 37.1414 54.6743C37.2882 54.626 37.4298 54.5631 37.5641 54.4866C38.6078 53.8555 39.3228 52.7028 39.7872 51.0443C40.2612 49.6634 40.2612 48.164 39.7872 46.7832C39.671 46.5101 39.5106 46.2581 39.3123 46.0373C39.1183 45.8208 38.8722 45.6574 38.5974 45.5627C38.4548 45.5219 38.3031 45.526 38.163 45.5745C38.0229 45.6231 37.9012 45.7137 37.8146 45.8339C37.4597 46.1747 37.0805 47.216 36.6769 48.958H36.6821Z" fill="#EC3205"/>
<path d="M58.6368 49.0935C59.4597 49.3908 60.1436 49.9815 60.5573 50.752C61.0666 51.6633 61.3895 52.6668 61.5071 53.7041C61.6501 54.7846 61.7181 55.8738 61.7106 56.9638C61.7006 57.9955 61.6379 59.0261 61.5227 60.0514C61.4549 60.5052 61.3922 60.8703 61.3348 61.1519C61.2644 61.5061 61.1685 61.8547 61.0478 62.195C60.9468 62.5305 60.78 62.8425 60.5573 63.113C60.3385 63.343 60.0711 63.5212 59.7745 63.6345C59.4001 63.7723 58.9933 63.7959 58.6055 63.7023C58.1659 63.5977 57.7689 63.3611 57.4679 63.0243C57.1686 62.6956 56.9853 62.2779 56.946 61.8351C56.9107 61.3399 56.9511 60.8422 57.066 60.3591C57.1494 59.9838 57.2121 59.6043 57.2539 59.2221C57.4447 57.5097 57.4953 55.7846 57.4052 54.0639C57.3009 52.8018 57.1286 52.0194 56.8834 51.7273C56.8075 51.653 56.7214 51.5897 56.6277 51.5396C56.5119 51.4755 56.3869 51.4297 56.2571 51.404C56.1062 51.3675 55.9488 51.3675 55.7979 51.404C55.6081 51.4543 55.4375 51.5596 55.3073 51.7065C55.1154 51.9061 54.9489 52.1285 54.8116 52.3689C54.8471 54.2513 54.7459 56.1339 54.5089 58.0017C54.5014 58.0927 54.4892 58.1832 54.4724 58.2729C54.4254 58.7944 54.3837 59.1596 54.3367 59.4412C54.2668 59.8211 54.1709 60.1958 54.0497 60.5625C53.9424 60.934 53.7769 61.2861 53.5591 61.6057C53.3375 61.8687 53.0542 62.073 52.7346 62.2002C52.3403 62.3589 51.907 62.3934 51.4925 62.2993C51.0429 62.204 50.6311 61.9792 50.3079 61.6526C50.0389 61.3644 49.8657 61 49.8121 60.6095C49.7576 60.044 49.7576 59.4747 49.8121 58.9092C49.8591 58.1999 49.9322 57.4645 50.0313 56.7082C50.1305 55.952 50.214 54.9662 50.2714 53.7562C50.3288 52.5462 50.334 51.3518 50.2714 50.1731V49.3282C50.2714 48.8536 50.2714 48.4728 50.2401 48.1912C50.2088 47.9095 50.1775 47.5757 50.12 47.1898C50.0899 46.8803 49.9842 46.583 49.8121 46.324C49.7494 46.2344 49.6658 46.1615 49.5685 46.1115C49.4712 46.0616 49.3631 46.036 49.2538 46.0371C48.6623 46.0371 48.1979 46.6421 47.8604 47.8522C47.4766 49.3468 47.2389 50.8752 47.1507 52.4158C47.2246 54.4609 47.4163 56.5001 47.7247 58.5233C47.792 58.9504 47.8825 59.3734 47.9961 59.7906C48.1249 60.2663 48.2277 60.7486 48.304 61.2354C48.3404 61.6329 48.2814 62.0335 48.1317 62.4037C47.977 62.8484 47.6628 63.22 47.2498 63.4468C46.9881 63.5733 46.7081 63.6578 46.42 63.6971C46.1868 63.7373 45.947 63.7139 45.726 63.6293C45.5192 63.5502 45.3243 63.4432 45.1467 63.3112C44.9554 63.1657 44.7897 62.9894 44.6562 62.7896C44.5081 62.5796 44.3773 62.3581 44.2648 62.1272C44.145 61.886 44.0422 61.6368 43.9569 61.3814C43.8681 61.1102 43.7951 60.8598 43.7377 60.6356C43.6803 60.4113 43.6281 60.1714 43.5863 59.921C42.8331 55.634 42.6053 51.2711 42.9079 46.929C42.9288 46.5013 42.9445 46.2249 42.9549 46.0997C42.9549 45.9746 42.9966 45.7138 43.0436 45.3174C43.0641 45.0282 43.1202 44.7427 43.2106 44.4672C43.2784 44.3004 43.3776 44.0761 43.4976 43.7892C43.5901 43.5509 43.7496 43.3444 43.9569 43.1946C44.1664 43.0706 44.3886 42.9692 44.6196 42.8921C44.9108 42.7987 45.2176 42.7633 45.5224 42.7878C46.0268 42.8467 46.4942 43.0812 46.8428 43.4502C47.1423 43.8656 47.2981 44.3674 47.2863 44.8793C47.2863 45.4999 47.2863 46.2979 47.2498 47.268C47.3434 46.945 47.4567 46.628 47.589 46.3188C48.2013 44.928 49.0502 44.0917 50.1357 43.8101C51.423 43.4902 52.498 44.1004 53.3608 45.6408C54.1545 47.2 54.6064 48.9105 54.6863 50.6581C55.6674 49.0309 56.9843 48.5093 58.6368 49.0935ZM46.634 45.8702C46.7227 44.7854 46.5192 44.0239 46.0234 43.5963C45.8124 43.4493 45.5668 43.3596 45.3107 43.3358C45.0546 43.312 44.7967 43.355 44.5622 43.4606C44.4526 43.5076 44.4109 43.5806 44.4474 43.6797C44.4527 43.7027 44.4627 43.7243 44.477 43.7432C44.4912 43.762 44.5093 43.7776 44.53 43.7889C44.5507 43.8003 44.5736 43.8071 44.5972 43.8089C44.6207 43.8108 44.6444 43.8076 44.6666 43.7996C44.8474 43.707 45.0497 43.6644 45.2525 43.6763C45.4553 43.6883 45.6512 43.7543 45.8199 43.8674C46.227 44.2065 46.3835 44.8636 46.2948 45.8337C46.2948 45.9485 46.2948 46.0059 46.4305 46.0059H46.4722C46.4932 46.0096 46.5147 46.0089 46.5354 46.004C46.5562 45.9991 46.5757 45.9901 46.5928 45.9774C46.6099 45.9647 46.6242 45.9486 46.6349 45.9302C46.6456 45.9118 46.6524 45.8914 46.6549 45.8702H46.634ZM53.8983 52.8904C54.0131 52.8904 54.0705 52.8487 54.0705 52.7548C54.0734 51.8081 54.0159 50.8622 53.8983 49.9228C53.7951 49.0682 53.6206 48.2238 53.3765 47.3984C53.1799 46.68 52.839 46.0092 52.3745 45.4269C52.0092 44.9462 51.4765 44.6204 50.882 44.5142C50.8596 44.506 50.8356 44.5031 50.8119 44.5059C50.7882 44.5087 50.7655 44.5171 50.7457 44.5303C50.7259 44.5435 50.7094 44.5612 50.6977 44.582C50.686 44.6027 50.6794 44.626 50.6784 44.6498C50.6713 44.6722 50.6693 44.6959 50.6726 44.7191C50.6758 44.7424 50.6843 44.7646 50.6973 44.7841C50.7104 44.8037 50.7276 44.82 50.7478 44.832C50.7681 44.8439 50.7907 44.8512 50.8141 44.8532C51.7222 44.9888 52.4371 45.7607 52.9694 47.1741C53.5586 48.9732 53.8184 50.8636 53.7365 52.7548C53.7783 52.8487 53.8044 52.8904 53.9192 52.8904H53.8983Z" fill="#EC3205"/>
<path d="M69.0274 44.311C70.4051 44.7596 71.4749 45.8496 72.2316 47.5655C73.0115 49.4507 73.3678 51.4839 73.2754 53.5217C73.2435 55.7093 72.7825 57.8693 71.9185 59.8795C71.5651 60.8206 71.0336 61.6847 70.3529 62.4247C69.8545 62.9887 69.1982 63.3902 68.469 63.5774C67.8276 63.7123 67.1609 63.6598 66.5486 63.4261C65.8443 63.1318 65.2342 62.6502 64.7847 62.0336C64.1958 61.2596 63.7374 60.3946 63.4279 59.4727C62.9611 58.0722 62.6649 56.6204 62.5459 55.149C62.4078 53.6615 62.4463 52.1629 62.6607 50.6845C62.8374 49.3779 63.1884 48.1009 63.7044 46.8875C64.1372 45.8578 64.9061 45.0048 65.8858 44.4675C66.3689 44.2216 66.8985 44.0806 67.4399 44.0536C67.9813 44.0266 68.5223 44.1144 69.0274 44.311ZM64.9882 47.1952C65.0761 46.7578 65.2748 46.3501 65.5654 46.0113C65.8559 45.6726 66.2286 45.414 66.6477 45.2603C67.0265 45.0583 67.4514 44.9584 67.8805 44.9703C68.3096 44.9822 68.7283 45.1055 69.0953 45.3281C69.1137 45.3396 69.1345 45.3471 69.1561 45.3499C69.1777 45.3527 69.1996 45.3508 69.2204 45.3444C69.2412 45.338 69.2604 45.3271 69.2766 45.3126C69.2929 45.2981 69.3058 45.2802 69.3144 45.2603C69.3285 45.2417 69.3384 45.2202 69.3435 45.1975C69.3485 45.1747 69.3485 45.1511 69.3436 45.1283C69.3386 45.1055 69.3288 45.0841 69.3147 45.0654C69.3007 45.0468 69.2828 45.0314 69.2623 45.0203C68.8473 44.7765 68.3771 44.6424 67.8959 44.6305C67.4148 44.6186 66.9385 44.7295 66.512 44.9525C66.0435 45.1521 65.63 45.4616 65.3065 45.8548C64.9936 46.2225 64.7671 46.6556 64.6438 47.1222C64.6381 47.1674 64.6487 47.2131 64.6735 47.2513C64.6983 47.2895 64.7359 47.3177 64.7795 47.3308H64.816C64.8562 47.3328 64.8958 47.3202 64.9275 47.2953C64.9591 47.2703 64.9807 47.2348 64.9882 47.1952ZM68.7874 61.1574C69.1944 61.4077 69.6589 61.3034 70.1807 60.8392C70.8378 60.1444 71.3254 59.3073 71.6054 58.3931C72.0584 57.1085 72.3324 55.7677 72.4195 54.4084C72.5294 52.9478 72.4257 51.4789 72.1116 50.0482C71.8905 48.7374 71.3169 47.5115 70.4521 46.5016C70.3238 46.3896 70.1713 46.3087 70.0065 46.2653C69.8418 46.2219 69.6692 46.217 69.5023 46.2512C69.1009 46.2623 68.7156 46.4115 68.4116 46.6737C67.9512 47.3361 67.6347 48.0877 67.4827 48.8799C67.1409 50.246 66.9467 51.6448 66.9034 53.0524C66.8341 54.7801 67.0348 56.5081 67.4984 58.1741C67.6549 58.6487 67.8741 59.2171 68.1611 59.9369C68.298 60.3767 68.5099 60.7896 68.7874 61.1574Z" fill="#EC3205"/>
<path d="M82.872 60.5262C83.279 60.7505 83.2947 61.1365 82.9085 61.6789C82.4793 62.3567 81.8682 62.9005 81.1448 63.2481C80.4214 63.5957 79.6149 63.7333 78.8171 63.6452C78.2928 63.6684 77.7695 63.581 77.2813 63.3887C76.7931 63.1964 76.3508 62.9035 75.9834 62.529C75.3685 61.7093 74.9765 60.7444 74.8457 59.7283C74.5685 58.2283 74.4322 56.7056 74.4387 55.1802C74.4387 53.4765 74.4561 52.0405 74.4909 50.8722C74.5257 49.7039 74.5935 48.546 74.6944 47.3986C74.6944 47.3047 74.6944 47.07 74.7257 46.6841C74.757 46.2981 74.7675 46.0269 74.7779 45.8704C74.7884 45.714 74.8249 45.4532 74.8823 45.0881C74.9117 44.8138 74.9802 44.545 75.0858 44.2901C75.1641 44.1232 75.2632 43.9146 75.3885 43.6643C75.4913 43.4519 75.6501 43.2716 75.8477 43.1427C76.0501 43.0196 76.2676 42.9231 76.4948 42.8558C76.7809 42.7725 77.0798 42.7425 77.3768 42.7672C77.6465 42.7939 77.9081 42.8742 78.1465 43.0031C78.3848 43.1321 78.5951 43.3072 78.7649 43.5182C79.0653 44.0109 79.2023 44.586 79.1563 45.1611C79.1563 45.8757 79.0937 46.778 79.005 47.8732C78.9163 48.9685 78.8328 50.288 78.7649 51.8266C78.7035 53.6028 78.7489 55.381 78.9006 57.1517C78.9006 57.2665 79.0259 58.0697 79.2764 59.5613C79.3001 59.789 79.3849 60.0061 79.5217 60.1897C79.6586 60.3733 79.8424 60.5166 80.0539 60.6045C80.9133 61.0113 81.5134 61.1469 81.8544 61.0113L82.1101 60.8392C82.1949 60.7849 82.2751 60.7238 82.3501 60.6566C82.4151 60.5915 82.4961 60.5448 82.585 60.521C82.6304 60.5012 82.6795 60.4914 82.729 60.4923C82.7786 60.4932 82.8273 60.5048 82.872 60.5262ZM78.4257 45.8704C78.5405 44.7856 78.337 44.0241 77.8151 43.5965C77.6114 43.4487 77.3719 43.3582 77.1213 43.3344C76.8708 43.3106 76.6184 43.3542 76.3905 43.4608C76.2757 43.5078 76.2391 43.5808 76.2704 43.6799C76.2763 43.7031 76.287 43.7248 76.3017 43.7436C76.3165 43.7625 76.335 43.7781 76.3561 43.7894C76.3773 43.8007 76.4005 43.8074 76.4244 43.8092C76.4483 43.811 76.4723 43.8078 76.4948 43.7998C76.6682 43.704 76.8653 43.6595 77.0631 43.6715C77.2608 43.6836 77.4511 43.7516 77.6116 43.8676C78.0448 44.2067 78.2118 44.8638 78.1335 45.8339C78.1074 45.9487 78.1335 46.006 78.2692 46.006C78.4048 46.006 78.4257 45.9591 78.4257 45.8704Z" fill="#EC3205"/>
<path d="M89.5942 44.3104C90.9771 44.759 92.0469 45.849 92.8036 47.5649C93.5924 49.4481 93.9576 51.4814 93.8734 53.5211C93.839 55.7084 93.3781 57.868 92.5166 59.8789C92.1614 60.8191 91.6301 61.683 90.951 62.4241C90.4517 62.9871 89.7958 63.3884 89.0671 63.5768C88.4257 63.712 87.7589 63.6595 87.1466 63.4255C86.4423 63.1312 85.8323 62.6496 85.3828 62.033C84.7938 61.259 84.3355 60.394 84.0259 59.4721C83.5599 58.0711 83.262 56.6197 83.1387 55.1484C83.0049 53.6606 83.0452 52.1623 83.2588 50.6839C83.4414 49.3756 83.8013 48.0982 84.3286 46.8869C84.7472 45.8691 85.495 45.0207 86.4526 44.4773C86.9347 44.2291 87.4639 44.0859 88.0055 44.0572C88.547 44.0284 89.0885 44.1147 89.5942 44.3104ZM85.555 47.1946C85.6433 46.7566 85.8428 46.3486 86.1343 46.0097C86.4258 45.6709 86.7996 45.4126 87.2197 45.2597C87.5975 45.0577 88.0215 44.9577 88.4499 44.9696C88.8782 44.9815 89.296 45.1048 89.662 45.3275C89.6809 45.3391 89.702 45.3466 89.724 45.3494C89.7459 45.3523 89.7683 45.3505 89.7895 45.3441C89.8107 45.3377 89.8303 45.3268 89.847 45.3123C89.8637 45.2977 89.8772 45.2798 89.8864 45.2597C89.8997 45.2408 89.9089 45.2193 89.9135 45.1967C89.918 45.1741 89.9179 45.1508 89.9129 45.1283C89.908 45.1057 89.8985 45.0845 89.885 45.0658C89.8714 45.0471 89.8541 45.0314 89.8342 45.0197C89.4193 44.7759 88.9491 44.6418 88.4679 44.6299C87.9867 44.618 87.5105 44.7289 87.084 44.9519C86.6155 45.1515 86.2019 45.461 85.8785 45.8542C85.5656 46.2219 85.3391 46.655 85.2158 47.1216C85.2101 47.1668 85.2206 47.2125 85.2455 47.2507C85.2703 47.2889 85.3078 47.3171 85.3514 47.3302H85.388C85.4279 47.3332 85.4674 47.3209 85.4985 47.2957C85.5295 47.2705 85.5497 47.2343 85.555 47.1946ZM89.3593 61.1568C89.7664 61.4071 90.2308 61.3028 90.7527 60.8386C91.4098 60.1438 91.8973 59.3067 92.1774 58.3925C92.6304 57.1079 92.9043 55.7671 92.9915 54.4078C93.0987 52.9471 92.995 51.4787 92.6836 50.0476C92.458 48.7382 91.8849 47.5134 91.0241 46.501C90.8949 46.3885 90.7416 46.3074 90.5759 46.264C90.4102 46.2206 90.2368 46.216 90.0691 46.2506C89.6692 46.2616 89.2856 46.4109 88.9836 46.6731C88.5204 47.3346 88.202 48.0864 88.0495 48.8793C87.7122 50.2461 87.5198 51.6447 87.4754 53.0518C87.406 54.7795 87.6068 56.5075 88.0703 58.1735C88.2269 58.6481 88.4461 59.2166 88.7331 59.9363C88.87 60.3761 89.0818 60.789 89.3593 61.1568Z" fill="#EC3205"/>
<path d="M46.9101 9.03498C47.5308 9.60948 48.0157 10.3148 48.3298 11.0999C48.7447 12.0614 49.0235 13.076 49.1585 14.1144C49.3185 15.3167 49.3905 16.529 49.3739 17.7418C49.362 19.0487 49.2419 20.3525 49.0149 21.6396C48.7879 22.9257 48.4873 24.1976 48.1144 25.4492C47.7735 26.6081 47.2911 27.7207 46.6781 28.7618C46.125 29.6959 45.4609 30.5598 44.7004 31.3347C44.0432 32.0248 43.2014 32.5116 42.2752 32.737C41.3229 32.9518 40.3311 32.9157 39.3971 32.6321C39.3367 32.6271 39.2772 32.6141 39.2203 32.5935C39.0201 33.0082 38.6931 33.3485 38.2867 33.5652C37.9831 33.72 37.6534 33.8174 37.3144 33.8523C37.0304 33.878 36.7446 33.8285 36.4857 33.7087C36.2575 33.5877 36.0474 33.4353 35.8615 33.256C35.6414 33.0592 35.4549 32.828 35.3091 32.5714C35.1544 32.2843 35.0163 32.0027 34.8948 31.7266C34.7689 31.4242 34.6673 31.1122 34.5909 30.7936C34.5081 30.4458 34.4362 30.1531 34.3755 29.9102C34.3073 29.6391 34.2539 29.3645 34.2153 29.0876C33.3254 23.7256 33.0603 18.2786 33.4253 12.8556C33.4287 12.7097 33.4397 12.5641 33.4584 12.4194C33.4584 11.8673 33.5082 11.4532 33.5303 11.1661C33.5699 10.7719 33.6363 10.3808 33.7291 9.99565C33.7972 9.60242 33.9438 9.2269 34.16 8.89143C34.3658 8.61411 34.6373 8.39217 34.95 8.24547C35.3467 8.05453 35.7872 7.97259 36.2261 8.00807C36.5587 8.06311 36.8799 8.17318 37.1763 8.33379C37.433 8.48015 37.6405 8.69915 37.7729 8.96321C37.9175 9.23263 38.0182 9.52338 38.0712 9.82449C38.1232 10.2531 38.1398 10.6852 38.1209 11.1164C38.1209 11.6686 38.0878 12.2207 38.0491 12.7341C38.0105 13.2476 37.9718 13.9653 37.9276 14.8542C37.8834 15.7431 37.8558 16.5879 37.8558 17.405C38.6439 13.9819 39.8408 11.444 41.4466 9.79137C42.1266 9.02275 43.0445 8.5038 44.054 8.31725C44.5539 8.23284 45.0658 8.25304 45.5574 8.37659C46.049 8.50014 46.5097 8.72433 46.9101 9.03498ZM36.9664 9.41041C36.9875 9.40122 37.0064 9.38758 37.0218 9.37041C37.0372 9.35324 37.0487 9.33295 37.0555 9.31094C37.0623 9.28892 37.0643 9.26568 37.0613 9.24283C37.0583 9.21998 37.0504 9.19806 37.0382 9.17854C36.8952 8.96588 36.6926 8.80008 36.4558 8.70188C36.219 8.60368 35.9585 8.57743 35.7068 8.62643C35.4359 8.65385 35.1791 8.76072 34.9687 8.93362C34.7584 9.10652 34.6039 9.33772 34.5246 9.59814C34.5105 9.64062 34.5135 9.68696 34.5331 9.72721C34.5528 9.76746 34.5874 9.79844 34.6296 9.81348H34.7014C34.7344 9.81436 34.7667 9.80386 34.7928 9.78375C34.819 9.76364 34.8374 9.73514 34.845 9.70305C34.9088 9.50871 35.028 9.33723 35.188 9.20971C35.3479 9.08219 35.5417 9.0042 35.7455 8.98531C35.9288 8.93982 36.1218 8.95381 36.2966 9.02528C36.4714 9.09675 36.6189 9.22197 36.7178 9.38281C36.7313 9.4023 36.7488 9.41869 36.7691 9.43083C36.7895 9.44298 36.8122 9.45059 36.8358 9.45321C36.8593 9.45583 36.8832 9.45338 36.9057 9.446C36.9282 9.43861 36.9489 9.42647 36.9664 9.41041ZM39.5517 30.2249C40.6566 30.1035 41.6123 29.0876 42.4299 27.1717C43.2849 25.0653 43.8625 22.8568 44.1479 20.6017C44.4888 18.2586 44.6275 15.8905 44.5623 13.5236C44.5435 13.0543 44.4599 12.5898 44.3137 12.1434C44.1651 11.7155 43.9059 11.3345 43.5624 11.0391C43.2143 10.7355 42.7613 10.7576 42.2144 11.0888C41.3229 11.7262 40.6251 12.5975 40.1981 13.6065C39.6077 14.7697 39.1393 15.9908 38.8004 17.2504C38.4979 18.3772 38.2691 19.5225 38.1154 20.679C38.045 21.0438 37.997 21.4125 37.9718 21.7832C38.1006 23.8887 38.3403 25.9859 38.6899 28.0662C38.7453 28.4676 38.8302 28.8643 38.9441 29.2532C39.0877 29.8053 39.1816 30.1255 39.2313 30.2912C39.3407 30.2844 39.4486 30.2621 39.5517 30.2249ZM48.1752 19.5195C48.2967 19.5195 48.3575 19.4643 48.3575 19.3428C48.549 16.4461 48.4109 14.1604 47.9431 12.4857C47.4754 10.8109 46.7149 9.8282 45.6616 9.53742C45.6381 9.52899 45.613 9.52563 45.5881 9.52758C45.5632 9.52954 45.5389 9.53674 45.517 9.54874C45.4951 9.56074 45.476 9.57727 45.4609 9.5972C45.4458 9.61714 45.4351 9.64004 45.4296 9.6644C45.3909 9.7693 45.4296 9.8521 45.5566 9.89627C46.5142 10.1392 47.2084 11.0796 47.6393 12.7175C48.1033 14.8862 48.23 17.1135 48.015 19.3208C48.0101 19.3447 48.0105 19.3693 48.0163 19.393C48.022 19.4167 48.033 19.4388 48.0483 19.4578C48.0636 19.4768 48.0829 19.4922 48.1048 19.5028C48.1267 19.5135 48.1508 19.5192 48.1752 19.5195Z" fill="#EC3205"/>
<path d="M57.1638 13.634C58.6222 14.1088 59.7547 15.2627 60.5557 17.0792C61.3813 19.0747 61.7584 21.2271 61.6606 23.3842C61.6268 25.6999 61.1388 27.9865 60.2242 30.1144C59.8501 31.1106 59.2874 32.0254 58.567 32.8087C58.0393 33.4057 57.3446 33.8308 56.5727 34.0289C55.8937 34.1717 55.188 34.1161 54.5397 33.8688C53.7942 33.5572 53.1484 33.0474 52.6725 32.3947C52.0491 31.5753 51.5639 30.6596 51.2362 29.6838C50.7421 28.2012 50.4286 26.6644 50.3026 25.1068C50.1564 23.5322 50.1972 21.9458 50.4241 20.3808C50.6112 18.9977 50.9828 17.6459 51.529 16.3614C51.9871 15.2713 52.801 14.3684 53.8382 13.7996C54.3495 13.5394 54.9101 13.39 55.4833 13.3615C56.0564 13.3329 56.6291 13.4258 57.1638 13.634ZM52.888 16.6871C52.981 16.224 53.1914 15.7925 53.4989 15.4339C53.8065 15.0753 54.201 14.8015 54.6447 14.6388C55.0457 14.4251 55.4954 14.3193 55.9497 14.3319C56.4039 14.3444 56.8471 14.475 57.2356 14.7106C57.2551 14.7229 57.2771 14.7308 57.3 14.7337C57.3228 14.7367 57.3461 14.7347 57.3681 14.7279C57.3901 14.7211 57.4104 14.7096 57.4276 14.6942C57.4448 14.6789 57.4584 14.66 57.4676 14.6388C57.4825 14.6192 57.493 14.5965 57.4983 14.5724C57.5037 14.5482 57.5037 14.5233 57.4984 14.4992C57.4932 14.475 57.4828 14.4523 57.4679 14.4326C57.4531 14.4129 57.4341 14.3966 57.4124 14.3849C56.9732 14.1268 56.4754 13.9848 55.966 13.9722C55.4567 13.9596 54.9525 14.077 54.5011 14.3131C54.0051 14.5243 53.5673 14.8519 53.225 15.2682C52.8937 15.6574 52.6539 16.1159 52.5234 16.6099C52.5174 16.6577 52.5285 16.7061 52.5548 16.7465C52.5811 16.7869 52.6208 16.8167 52.667 16.8307H52.7057C52.7483 16.8328 52.7902 16.8194 52.8237 16.793C52.8572 16.7666 52.88 16.729 52.888 16.6871ZM56.9097 31.4671C57.3406 31.7321 57.8322 31.6217 58.3847 31.1303C59.0802 30.3948 59.5963 29.5086 59.8928 28.5409C60.3723 27.1811 60.6623 25.7617 60.7546 24.3228C60.8709 22.7766 60.7611 21.2217 60.4286 19.7072C60.1946 18.3197 59.5874 17.0219 58.6719 15.9529C58.5361 15.8343 58.3746 15.7487 58.2002 15.7027C58.0259 15.6568 57.8432 15.6516 57.6665 15.6878C57.2416 15.6995 56.8337 15.8575 56.5119 16.135C56.0245 16.8363 55.6895 17.6319 55.5286 18.4705C55.1668 19.9166 54.9612 21.3974 54.9154 22.8874C54.842 24.7163 55.0544 26.5456 55.5452 28.3091C55.7109 28.8115 55.9429 29.4133 56.2468 30.1752C56.3917 30.6407 56.6159 31.0778 56.9097 31.4671Z" fill="#EC3205"/>
<path d="M68.1572 15.5711C68.8532 14.1356 69.8108 13.2854 71.0298 13.0204C72.5029 12.7112 73.7496 13.4473 74.7697 15.2288C76.3976 18.1071 76.8874 22.9804 76.2392 29.8486C76.2392 29.9407 76.2281 30.0952 76.206 30.3124C76.1563 30.7927 76.1232 31.1626 76.0956 31.4166C76.0568 31.7876 75.9978 32.1562 75.9188 32.5208C75.8475 32.9029 75.7268 33.2741 75.5597 33.625C75.4013 33.9174 75.2164 34.1946 75.0073 34.4532C74.7987 34.7202 74.5104 34.9136 74.1842 35.0053C73.8076 35.105 73.4116 35.105 73.0351 35.0053C72.5011 34.9005 72.0259 34.599 71.7037 34.1606C71.3719 33.739 71.205 33.2111 71.2342 32.6754C71.2342 32.6754 71.2342 32.2834 71.306 31.5712C71.3778 30.859 71.3999 30.213 71.4331 29.6168C71.4662 29.0205 71.5104 28.1316 71.5601 26.9556C71.6098 25.7796 71.6319 24.7471 71.6319 23.7589C71.6319 22.7706 71.6319 21.6056 71.5933 20.1702C71.5196 16.725 70.934 15.157 69.8365 15.4662C68.588 15.8048 67.8091 18.1384 67.4998 22.4669C67.5666 24.5241 67.7511 26.5758 68.0522 28.6119C68.1206 29.0646 68.2165 29.5126 68.3395 29.9535C68.4746 30.457 68.5816 30.9676 68.6599 31.4829C68.7006 31.9033 68.64 32.3274 68.4831 32.7196C68.3174 33.1894 67.9853 33.5822 67.5495 33.8238C67.2352 33.9778 66.8934 34.0678 66.5441 34.0888C66.2656 34.1101 65.9863 34.0608 65.732 33.9453C65.4838 33.8247 65.2637 33.6536 65.0856 33.4429C64.8866 33.2235 64.7124 32.9828 64.5664 32.7251C64.4101 32.4496 64.2771 32.1614 64.1686 31.8638C64.0526 31.5436 63.9532 31.2399 63.8813 30.9694C63.8095 30.6989 63.7377 30.4173 63.6659 30.086C62.8686 25.5479 62.6274 20.9295 62.9477 16.333C62.9477 15.8803 62.9919 15.5877 63.003 15.4552C63.014 15.3226 63.0472 15.0466 63.0914 14.627C63.117 14.321 63.1782 14.0189 63.2737 13.7271C63.3455 13.5504 63.4449 13.313 63.5775 13.0093C63.6737 12.7561 63.8429 12.537 64.0636 12.3799C64.2855 12.2486 64.5207 12.1412 64.7652 12.0597C65.0717 11.961 65.3945 11.9235 65.7154 11.9493C66.2818 12.0013 66.8052 12.2728 67.1738 12.7057C67.4775 13.2033 67.6274 13.7795 67.6047 14.362C67.6047 15.0797 67.6047 16.0183 67.5108 17.1225C67.693 16.5922 67.9088 16.074 68.1572 15.5711ZM66.8976 15.284C67.0191 14.1356 66.8147 13.3295 66.2899 12.8768C66.0665 12.7213 65.8066 12.6263 65.5355 12.6011C65.2644 12.5759 64.9914 12.6215 64.7431 12.7333C64.6216 12.783 64.5829 12.8602 64.6161 12.9651C64.6224 12.9891 64.6335 13.0114 64.6488 13.0309C64.664 13.0504 64.6831 13.0666 64.7048 13.0785C64.7265 13.0903 64.7504 13.0977 64.775 13.1C64.7997 13.1024 64.8245 13.0997 64.8481 13.0921C65.0332 12.9928 65.2424 12.9469 65.4522 12.9595C65.6619 12.9722 65.864 13.043 66.0358 13.1639C66.4888 13.5228 66.6711 14.2184 66.5883 15.2454C66.5606 15.3668 66.5883 15.4276 66.7319 15.4276C66.8755 15.4276 66.8976 15.3779 66.8976 15.284ZM75.2172 22.7154C75.3277 22.7154 75.3774 22.6712 75.3774 22.5718C75.4066 21.5703 75.3585 20.5681 75.2338 19.5739C75.1272 18.6689 74.9424 17.7748 74.6813 16.9017C74.4728 16.1425 74.114 15.4329 73.6262 14.8147C73.2276 14.3005 72.6496 13.9555 72.0076 13.8485C71.9137 13.8209 71.8529 13.8485 71.8253 13.9921C71.8177 14.0157 71.8156 14.0408 71.8191 14.0654C71.8225 14.0901 71.8315 14.1136 71.8453 14.1343C71.8591 14.1549 71.8774 14.1722 71.8988 14.1849C71.9202 14.1976 71.9441 14.2052 71.9689 14.2074C72.9301 14.3509 73.6814 15.1681 74.2339 16.6643C74.8478 18.5712 75.1281 20.5697 75.0625 22.5718C75.0846 22.6712 75.1122 22.7154 75.2172 22.7154Z" fill="#EC3205"/>
<path d="M84.5244 80.17C88.4437 80.17 90.9878 77.2839 91.8129 76.528C90.7586 82.1399 85.5008 93.3635 72.904 93.3635C60.3073 93.3635 55.462 86.4232 54.614 83.0561C53.5138 86.2857 49.0995 93.3635 36.1177 93.3635C23.1359 93.3635 18.011 82.0024 17.0713 76.3219C17.6443 77.6046 19.9042 80.17 24.3598 80.17C29.9293 80.17 35.4988 70 43.6125 70C48.6732 70 53.0554 73.9397 54.614 75.9096C55.8058 73.9397 59.6334 70 65.4092 70C72.629 70 78.4048 80.17 84.5244 80.17Z" fill="#313638"/>
<path d="M61.96 71.7846C62.4467 71.3519 64.0908 70.6164 66.7733 71.1356C69.4558 71.6548 71.6407 73.371 72.3978 74.1642" stroke="white" stroke-width="0.288133" stroke-linecap="round"/>
<path d="M20.0996 82.1143C21.0566 84.4057 24.4543 89.4946 30.3896 91.5185" stroke="white" stroke-width="0.288133" stroke-linecap="round"/>
</svg>
